<svg xmlns="http://www.w3.org/2000/svg" xmlns:xlink="http://www.w3.org/1999/xlink" width="88" height="92" viewBox="0 0 88 92">
  <defs>
    <clipPath id="clip-Artboard_1">
      <rect width="88" height="92"/>
    </clipPath>
  </defs>
  <g id="Artboard_1" data-name="Artboard 1" clip-path="url(#clip-Artboard_1)">
    <rect width="88" height="92" fill="#3860f4"/>
    <rect id="Rectangle_3" data-name="Rectangle 3" width="65.069" height="65.069" transform="translate(10.926 14.838)" fill="none" stroke="#000" stroke-miterlimit="10" stroke-width="4"/>
    <path id="Path_6" data-name="Path 6" d="M20.81,69.975V27.51H33.336" fill="none" stroke="#000" stroke-miterlimit="10" stroke-width="4"/>
    <path id="Path_7" data-name="Path 7" d="M52.244,26.336V68.577H45.606" fill="none" stroke="#000" stroke-miterlimit="10" stroke-width="4"/>
    <path id="Path_8" data-name="Path 8" d="M32.526,27.51h3.835V68.577h3.986" fill="none" stroke="#000" stroke-miterlimit="10" stroke-width="4"/>
    <path id="Path_9" data-name="Path 9" d="M32.932,14.838a3.5,3.5,0,1,1,3.5,3.5A3.5,3.5,0,0,1,32.932,14.838Z" fill="#fff" stroke="#000" stroke-miterlimit="10" stroke-width="4"/>
    <path id="Path_10" data-name="Path 10" d="M67.348,43.6,57.021,57.83,67.348,69.28" fill="none" stroke="#000" stroke-miterlimit="10" stroke-width="4"/>
    <path id="Path_16" data-name="Path 16" d="M0,0H65.069V65.069H0Z" transform="translate(10.926 14.838)" fill="#3860f4" stroke="#fff" stroke-width="4"/>
    <path id="Path_11" data-name="Path 11" d="M20.81,69.975V27.51H33.336" fill="none" stroke="#fff" stroke-miterlimit="10" stroke-width="4"/>
    <path id="Path_12" data-name="Path 12" d="M52.244,26.336V68.577H45.606" fill="none" stroke="#fff" stroke-miterlimit="10" stroke-width="4"/>
    <path id="Path_13" data-name="Path 13" d="M32.526,27.51h3.835V68.577h3.986" fill="none" stroke="#fff" stroke-miterlimit="10" stroke-width="4"/>
    <path id="Path_14" data-name="Path 14" d="M32.932,14.838a3.5,3.5,0,1,1,3.5,3.5A3.5,3.5,0,0,1,32.932,14.838Z" fill="#3860f4" stroke="#fff" stroke-miterlimit="10" stroke-width="4"/>
    <path id="Path_15" data-name="Path 15" d="M67.348,43.6,57.021,57.83,67.348,69.28" transform="translate(-1)" fill="none" stroke="#fff" stroke-miterlimit="10" stroke-width="4"/>
  </g>
</svg>
